<svg width="13" height="13" viewBox="0 0 13 13" fill="none" xmlns="http://www.w3.org/2000/svg">
<path d="M1.90782 1.90757C-0.629103 4.44449 -0.629103 8.55842 1.90782 11.0953C4.44474 13.6323 8.55866 13.6323 11.0956 11.0953C13.6325 8.55842 13.6325 4.44449 11.0956 1.90757C8.55866 -0.629347 4.44474 -0.629347 1.90782 1.90757ZM6.76225 2.73036C7.31077 2.73036 7.74959 3.18289 7.74959 3.73141C7.74959 4.27994 7.29706 4.73247 6.76225 4.73247C6.21372 4.73247 5.76119 4.27994 5.76119 3.7177C5.76119 3.16918 6.21372 2.73036 6.76225 2.73036ZM8.17469 9.43605C8.14727 9.51833 8.09242 9.61432 8.03756 9.66917C7.68102 10.0394 7.24221 10.2588 6.72111 10.2588C6.47427 10.2588 6.24115 10.2588 5.99432 10.2177C5.59664 10.1628 5.08925 9.66917 5.15782 9.14808C5.21267 8.79154 5.26752 8.435 5.32237 8.07846C5.43208 7.46137 5.54178 6.83057 5.65149 6.21348C5.65149 6.17234 5.6652 6.1312 5.6652 6.09006C5.6652 5.82951 5.58292 5.73352 5.32237 5.70609C5.21267 5.69238 5.10296 5.67867 4.99326 5.65124C4.86984 5.6101 4.80128 5.5004 4.81499 5.40441C4.8287 5.2947 4.89727 5.22614 5.0344 5.19871C5.10297 5.185 5.18524 5.185 5.26752 5.185C5.56921 5.185 5.8709 5.185 6.1863 5.185C6.51541 5.185 6.83081 5.185 7.15993 5.185C7.39305 5.185 7.53018 5.2947 7.53018 5.52783C7.53018 5.71981 7.50275 5.91179 7.46161 6.10377C7.3382 6.81685 7.20107 7.51622 7.07765 8.2293C7.03651 8.46242 6.98166 8.69555 6.95423 8.92867C6.94052 9.03837 6.95423 9.16179 6.98166 9.27149C7.0228 9.42234 7.1325 9.50462 7.28334 9.4909C7.40676 9.47719 7.53018 9.43605 7.6536 9.3812C7.74959 9.34006 7.83187 9.2715 7.92786 9.24407C8.09242 9.18922 8.21583 9.28521 8.17469 9.43605Z" fill="white"/>
</svg>
