<svg width="22" height="20" viewBox="0 0 22 20" fill="none" xmlns="http://www.w3.org/2000/svg">
<path d="M11.1147 0C5.49817 0 0.946045 4.298 0.946045 9.6C0.945906 10.8609 1.20883 12.1094 1.71981 13.2743C2.23078 14.4392 2.97979 15.4977 3.92407 16.3892C4.86835 17.2808 5.98939 17.988 7.22317 18.4704C8.45695 18.9529 9.77931 19.2011 11.1147 19.201C16.7291 19.201 21.2823 14.903 21.2823 9.6C21.2823 4.298 16.7291 0 11.1147 0ZM12.0637 3.466C13.055 3.466 13.3463 4.009 13.3463 4.63C13.3463 5.405 12.6896 6.122 11.568 6.122C10.6296 6.122 10.1827 5.677 10.2102 4.94C10.2102 4.319 10.7599 3.466 12.0637 3.466ZM9.52391 15.35C8.84607 15.35 8.35145 14.961 8.82488 13.256L9.60122 10.231C9.73573 9.747 9.75797 9.553 9.60122 9.553C9.39893 9.553 8.5188 9.887 7.99983 10.217L7.66196 9.694C9.3089 8.395 11.2026 7.633 12.0129 7.633C12.6907 7.633 12.803 8.389 12.4651 9.553L11.5754 12.733C11.4176 13.295 11.4854 13.489 11.6432 13.489C11.8466 13.489 12.5117 13.257 13.1662 12.77L13.5496 13.256C11.9472 14.768 10.2007 15.35 9.52391 15.35Z" fill="#313F41"/>
</svg>
