<svg width="13" height="13" viewBox="0 0 13 13" fill="none" xmlns="http://www.w3.org/2000/svg">
<path d="M12.9978 12.5278C12.9978 12.7909 12.7966 12.992 12.5335 12.992H5.10491C4.84182 12.992 4.64062 12.7909 4.64062 12.5278C4.64062 12.2647 4.84182 12.0635 5.10491 12.0635H12.5335C12.7966 12.0635 12.9978 12.2647 12.9978 12.5278Z" fill="white"/>
<path d="M11.6048 9.74219C11.8679 9.74219 12.0691 9.94338 12.0691 10.2065C12.0691 10.4696 11.8679 10.6708 11.6048 10.6708H7.4262C7.1631 10.6708 6.96191 10.4696 6.96191 10.2065C6.96191 9.94338 7.1631 9.74219 7.4262 9.74219H11.6048Z" fill="white"/>
<path d="M2.64404 7.55996L8.47857 1.70996L11.2643 4.49568L5.42976 10.3457L2.64404 7.55996Z" fill="white"/>
<path d="M9.14404 1.06012L9.62381 0.580357C10.3976 -0.193452 11.6512 -0.193452 12.4095 0.580357C13.1833 1.35417 13.1833 2.60774 12.4095 3.36607L11.9298 3.84583L9.14404 1.06012Z" fill="white"/>
<path d="M4.77962 10.9957L4.17604 11.5992L0.306997 12.9766C0.121283 13.0385 -0.0489553 12.8683 0.0129495 12.6826L1.39033 8.81353L1.9939 8.20996L4.77962 10.9957Z" fill="white"/>
</svg>
